<svg width="40.000000" height="40.000000" viewBox="0 0 40 40" fill="none" xmlns="http://www.w3.org/2000/svg" xmlns:xlink="http://www.w3.org/1999/xlink">
	<desc>
			Created with Pixso.
	</desc>
	<defs>
		<clipPath id="clip164_26">
			<rect id="check-icon" width="40.000000" height="40.000000" fill="white" fill-opacity="0"/>
		</clipPath>
	</defs>
	<g clip-path="url(#clip164_26)">
		<mask id="mask164_28" mask-type="alpha" maskUnits="userSpaceOnUse" x="0.000000" y="0.000000" width="40.000000" height="40.000000">
			<rect id="rect" width="40.000000" height="40.000000" fill="#5CC4DF" fill-opacity="1.000000"/>
			<rect id="rect" x="0.500000" y="0.500000" width="39.000000" height="39.000000" stroke="#000000" stroke-opacity="1.000000" stroke-width="1.000000"/>
		</mask>
		<g mask="url(#mask164_28)">
			<path id="path" d="M33.02 16.68L33 16.66C33 15.54 33.88 14.66 35 14.66C36.12 14.66 37 15.54 37 16.66L36.98 16.68L33.02 16.68ZM24.98 3.01L25 3C26.12 3 27 3.87 27 5C27 6.12 26.12 7 25 7L24.98 6.98L24.98 3.01Z" fill="#000000" fill-opacity="0" fill-rule="nonzero"/>
			<path id="path" d="M35 16.66L35 32.5C35 33.87 33.88 35 32.5 35L7.5 35C6.11 35 5 33.87 5 32.5L5 7.5C5 6.12 6.11 5 7.5 5L25 5" stroke="#FFFFFF" stroke-opacity="0.800000" stroke-width="4.000000" stroke-linejoin="round" stroke-linecap="round"/>
			<path id="path" d="M12.11 18.22L12.08 18.22C11.2 17.52 11.07 16.28 11.77 15.41C12.47 14.54 13.7 14.4 14.58 15.1L14.58 15.13L12.11 18.22ZM32.54 4.69L32.53 4.66C33.19 3.75 34.41 3.55 35.32 4.2C36.24 4.85 36.44 6.08 35.79 6.99L35.76 7L32.54 4.69Z" fill="#000000" fill-opacity="0" fill-rule="nonzero"/>
			<path id="path" d="M13.33 16.66L21.66 23.33L34.16 5.83" stroke="#FFFFFF" stroke-opacity="0.800000" stroke-width="4.000000" stroke-linejoin="round" stroke-linecap="round"/>
		</g>
	</g>
</svg>
