<svg width="40.000000" height="40.000000" viewBox="0 0 40 40" fill="none" xmlns="http://www.w3.org/2000/svg" xmlns:xlink="http://www.w3.org/1999/xlink">
	<desc>
	</desc>
	<defs>
		<clipPath id="clip18_49">
			<rect id="icon-mail" width="40.000000" height="40.000000" fill="white" fill-opacity="0"/>
		</clipPath>
	</defs>
	<g clip-path="url(#clip18_49)">
		<circle id="circle" cx="20.000000" cy="20.800003" r="20.000000" fill="#0788AA" fill-opacity="1.000000"/>
		<path id="path" d="M14.6 16.48L19.4 19.48C19.56 19.58 19.77 19.63 19.98 19.63C20.19 19.63 20.4 19.58 20.56 19.48L25.36 16.48C25.67 16.28 25.97 15.52 25.4 15.52L14.57 15.52C13.99 15.52 14.29 16.28 14.6 16.48ZM25.51 18.12L20.56 21.13C20.34 21.26 20.19 21.28 19.98 21.28C19.77 21.28 19.62 21.26 19.4 21.13C19.18 20.99 14.84 18.34 14.48 18.12C14.23 17.97 14.23 18.15 14.23 18.28L14.23 23.73C14.23 24.04 14.6 24.48 14.87 24.48L25.11 24.48C25.39 24.48 25.75 24.04 25.75 23.73L25.75 18.28C25.75 18.15 25.76 17.97 25.51 18.12Z" fill="#15184E" fill-opacity="1.000000" fill-rule="nonzero"/>
	</g>
</svg>
